<svg width="1646" height="990" xmlns="http://www.w3.org/2000/svg" xmlns:xlink="http://www.w3.org/1999/xlink" xml:space="preserve" overflow="hidden"><defs><clipPath id="clip0"><rect x="3462" y="1415" width="1646" height="990"/></clipPath></defs><g clip-path="url(#clip0)" transform="translate(-3462 -1415)"><g><path d="M3678.5 2041.57 5057.5 2041.57M3678.5 1963.56 5057.5 1963.56M3678.5 1886.56 5057.5 1886.56M3678.5 1808.56 5057.5 1808.56M3678.5 1730.56 5057.5 1730.56M3678.5 1653.55 5057.5 1653.55M3678.5 1575.5 5057.5 1575.5" stroke="#D9D9D9" stroke-width="3.4375" stroke-linejoin="round" stroke-miterlimit="10" fill="none"/></g><g><path d="M3725.12 1659.05 3816.13 1659.05 3816.13 2119 3725.12 2119ZM4184.14 1862.06 4276.14 1862.06 4276.14 2119 4184.14 2119ZM4644.15 1771.06 4735.16 1771.06 4735.16 2119 4644.15 2119Z" fill="#4F81BD"/></g><g><path d="M3816.13 2040.07 3908.13 2040.07 3908.13 2119 3816.13 2119ZM4276.14 1924.06 4368.14 1924.06 4368.14 2119 4276.14 2119ZM4735.16 1727.06 4827.16 1727.06 4827.16 2119 4735.16 2119Z" fill="#B9CDE5"/></g><g><path d="M3908.13 1960.06 4000.13 1960.06 4000.13 2119 3908.13 2119ZM4368.14 2049.07 4460.15 2049.07 4460.15 2119 4368.14 2119ZM4827.16 2012.07 4919.16 2012.07 4919.16 2119 4827.16 2119Z" fill="#C00000"/></g><g><path d="M4000.13 2110.07 4092.13 2110.07 4092.13 2119 4000.13 2119ZM4460.15 1939.06 4552.15 1939.06 4552.15 2119 4460.15 2119ZM4919.16 2076.07 5011.16 2076.07 5011.16 2119 4919.16 2119Z" fill="#D99694"/></g><g><path d="M3678.5 2119.5 5057.5 2119.5" stroke="#D9D9D9" stroke-width="3.4375" stroke-linejoin="round" stroke-miterlimit="10" fill="none" fill-rule="evenodd"/></g><g><text font-family="Palatino Linotype,Palatino Linotype_MSFontService,sans-serif" font-weight="400" font-size="41" transform="matrix(1 0 0 1 3615.83 2131)">0</text></g><g><text font-family="Palatino Linotype,Palatino Linotype_MSFontService,sans-serif" font-weight="400" font-size="41" transform="matrix(1 0 0 1 3615.83 2053)">5</text></g><g><text font-family="Palatino Linotype,Palatino Linotype_MSFontService,sans-serif" font-weight="400" font-size="41" transform="matrix(1 0 0 1 3595.2 1975)">10</text></g><g><text font-family="Palatino Linotype,Palatino Linotype_MSFontService,sans-serif" font-weight="400" font-size="41" transform="matrix(1 0 0 1 3595.2 1898)">15</text></g><g><text font-family="Palatino Linotype,Palatino Linotype_MSFontService,sans-serif" font-weight="400" font-size="41" transform="matrix(1 0 0 1 3595.2 1820)">20</text></g><g><text font-family="Palatino Linotype,Palatino Linotype_MSFontService,sans-serif" font-weight="400" font-size="41" transform="matrix(1 0 0 1 3595.2 1742)">25</text></g><g><text font-family="Palatino Linotype,Palatino Linotype_MSFontService,sans-serif" font-weight="400" font-size="41" transform="matrix(1 0 0 1 3595.2 1665)">30</text></g><g><text font-family="Palatino Linotype,Palatino Linotype_MSFontService,sans-serif" font-weight="400" font-size="41" transform="matrix(1 0 0 1 3595.2 1587)">35</text></g><g><text font-family="Palatino Linotype,Palatino Linotype_MSFontService,sans-serif" font-weight="400" font-size="41" transform="matrix(1 0 0 1 3826.35 2191)">3:1 / rx70</text></g><g><text font-family="Palatino Linotype,Palatino Linotype_MSFontService,sans-serif" font-weight="400" font-size="41" transform="matrix(1 0 0 1 4285.85 2191)">2:2 / rx70</text></g><g><text font-family="Palatino Linotype,Palatino Linotype_MSFontService,sans-serif" font-weight="400" font-size="41" transform="matrix(1 0 0 1 4745.36 2191)">2:2 / rx60</text></g><g><text font-family="Palatino Linotype,Palatino Linotype_MSFontService,sans-serif" font-weight="700" font-size="46" transform="matrix(6.12323e-17 -1 1 6.12323e-17 3567.61 2057)">Throughput (Mbps)</text></g><g><text font-family="Palatino Linotype,Palatino Linotype_MSFontService,sans-serif" font-weight="700" font-size="46" transform="matrix(1 0 0 1 4219.03 2265)">Configuration</text></g><g><text font-family="Palatino Linotype,Palatino Linotype_MSFontService,sans-serif" font-weight="700" font-size="50" transform="matrix(1 0 0 1 4010.36 1503)">5G network throughput</text></g><g><rect x="3969" y="2324" width="25" height="24.9998" fill="#4F81BD"/></g><g><text font-family="Palatino Linotype,Palatino Linotype_MSFontService,sans-serif" font-weight="400" font-size="41" transform="matrix(1 0 0 1 4004.5 2348)">A DL</text></g><g><rect x="4142" y="2324" width="25" height="24.9998" fill="#B9CDE5"/></g><g><text font-family="Palatino Linotype,Palatino Linotype_MSFontService,sans-serif" font-weight="400" font-size="41" transform="matrix(1 0 0 1 4177.85 2348)">A UL</text></g><g><rect x="4316" y="2324" width="24.9995" height="24.9998" fill="#C00000"/></g><g><text font-family="Palatino Linotype,Palatino Linotype_MSFontService,sans-serif" font-weight="400" font-size="41" transform="matrix(1 0 0 1 4351.36 2348)">C DL</text></g><g><rect x="4486" y="2324" width="25" height="24.9998" fill="#D99694"/></g><g><text font-family="Palatino Linotype,Palatino Linotype_MSFontService,sans-serif" font-weight="400" font-size="41" transform="matrix(1 0 0 1 4521.87 2348)">C UL</text></g></g></svg>